<svg height="480pt" viewBox="-7 0 480 480" width="480pt" xmlns="http://www.w3.org/2000/svg"><path d="m393.382812 192 15.832032 15.832031c30.84375 30.84375 48.167968 72.671875 48.167968 116.289063.003907 43.460937-17.265624 85.144531-48 115.878906v32h-112v-32l-16-24v-224zm0 0" fill="#e8d8bf"/><path d="m249.222656 144h128.320313c8.75 0 15.839843 7.09375 15.839843 15.839844v240.320312c0 8.746094-7.089843 15.839844-15.839843 15.839844h-128.320313c-8.746094 0-15.839844-7.09375-15.839844-15.839844v-240.320312c0-8.746094 7.09375-15.839844 15.839844-15.839844zm0 0" fill="#d1e3ee"/><path d="m233.382812 176h160v176h-160zm0 0" fill="#31b1ae"/><path d="m377.382812 176h16v176h-16zm0 0" fill="#25847f"/><path d="m233.382812 176h16v176h-16zm0 0" fill="#fff"/><path d="m297.382812 376h32v16h-32zm0 0" fill="#8d9aa5"/><path d="m169.382812 108.144531v-44.144531h-80v44.144531c-26.367187 17.617188-38.105468 50.417969-28.898437 80.765625s37.1875 51.101563 68.898437 51.101563c31.714844 0 59.695313-20.753907 68.902344-51.101563 9.203125-30.347656-2.53125-63.148437-28.902344-80.765625zm0 0" fill="#ef937d"/><path d="m169.382812 108.144531v-44.144531h-24v44.144531c24.535157 16.371094 36.585938 46.058594 30.414063 74.894531-6.175781 28.839844-29.328125 50.988282-58.414063 55.882813 33.472657 5.683594 66.363282-12.804687 78.90625-44.351563 12.546876-31.550781 1.332032-67.574218-26.90625-86.425781zm0 0" fill="#c67463"/><path d="m89.382812 8h80v64h-80zm0 0" fill="#d1e3ee"/><path d="m145.382812 8v24h-56v16h56v24h24v-64zm0 0" fill="#8d9aa5"/><g fill="#ef937d"><path d="m119.441406 264h16v32h-16zm0 0"/><path d="m183.015625 246.675781 12.257813-10.285156 20.570312 24.515625-12.257812 10.285156zm0 0"/><path d="m206.574219 113.070312 27.714843-15.996093 8 13.855469-27.714843 15.996093zm0 0"/><path d="m12.585938 110.9375 8-13.859375 27.714843 16-8 13.855469zm0 0"/><path d="m0 182.355469 31.515625-5.550781 2.773437 15.75-31.515624 5.550781zm0 0"/><path d="m39.042969 260.917969 20.5625-24.515625 12.261719 10.28125-20.566407 24.515625zm0 0"/></g><path d="m425.382812 416v-72.550781c0-12.953125-10.496093-23.449219-23.445312-23.449219h-56.554688c-8.835937 0-16 7.164062-16 16s7.164063 16 16 16h48c-26.507812 0-48 21.492188-48 48v16zm0 0" fill="#e8d8bf"/><path d="m313.382812 320c-25.34375 0-47.527343-17.023438-54.085937-41.507812-6.5625-24.480469 4.140625-50.316407 26.085937-62.988282l8 13.839844c-15.675781 9.050781-23.320312 27.507812-18.636718 44.992188 4.6875 17.488281 20.535156 29.648437 38.636718 29.648437 18.105469 0 33.953126-12.160156 38.636719-29.648437 4.6875-17.484376-2.957031-35.941407-18.636719-44.992188l8-13.839844c21.949219 12.671875 32.652344 38.507813 26.089844 62.988282-6.558594 24.484374-28.742187 41.507812-54.089844 41.507812zm0 0" fill="#ef937d"/><path d="m305.382812 200h16v67.207031h-16zm0 0" fill="#ef937d"/><path d="m89.382812 8h16v64h-16zm0 0" fill="#fff"/><path d="m297.382812 376h32v16h-32zm0 0"/><path d="m209.382812 168c.015626-25.183594-11.84375-48.902344-32-64v-96c0-4.417969-3.582031-8-8-8h-80c-4.417968 0-8 3.582031-8 8v96c-30.09375 22.574219-40.398437 63.066406-24.75 97.277344 15.648438 34.210937 53.023438 52.898437 89.78125 44.890625 36.757813-8.007813 62.96875-40.546875 62.96875-78.167969zm-112-120h48v-16h-48v-16h64v48h-64zm-32 120c-.007812-21.375 10.667969-41.34375 28.449219-53.207031 2.21875-1.484375 3.550781-3.980469 3.550781-6.648438v-28.144531h64v28.144531c.003907 2.667969 1.335938 5.164063 3.554688 6.648438 25.390625 16.960937 35.261719 49.496093 23.574219 77.707031-11.683594 28.210938-41.667969 44.238281-71.617188 38.277344-29.949219-5.957032-51.515625-32.242188-51.511719-62.777344zm0 0"/><path d="m119.441406 264h16v32h-16zm0 0"/><path d="m183.015625 246.675781 12.257813-10.285156 20.570312 24.515625-12.257812 10.285156zm0 0"/><path d="m206.574219 113.070312 27.710937-16 8 13.855469-27.710937 16zm0 0"/><path d="m12.585938 110.9375 8-13.859375 27.714843 16-8 13.855469zm0 0"/><path d="m0 182.355469 31.515625-5.550781 2.773437 15.75-31.515624 5.550781zm0 0"/><path d="m39.042969 260.917969 20.5625-24.515625 12.261719 10.28125-20.566407 24.515625zm0 0"/><path d="m401.382812 188.6875v-28.855469c-.015624-13.15625-10.679687-23.820312-23.839843-23.832031h-128.320313c-13.15625.011719-23.820312 10.675781-23.839844 23.832031v240.335938c.019532 13.15625 10.683594 23.820312 23.839844 23.832031h27.882813l12.277343 18.398438v29.601562c0 4.417969 3.582032 8 8 8h112c4.417969 0 8-3.582031 8-8v-28.734375c64.96875-67.636719 63.851563-174.824219-2.511718-241.089844zm-160-28.855469c.007813-4.328125 3.515626-7.832031 7.839844-7.832031h128.320313c4.328125 0 7.835937 3.503906 7.839843 7.832031v8.167969h-144zm0 24.167969h144v128h-40c-1.339843.023438-2.679687.15625-4 .398438 17.316407-9.984376 27.988282-28.457032 27.988282-48.445313 0-19.992187-10.671875-38.460937-27.988282-48.449219l-8 13.839844c15.679688 9.050781 23.324219 27.507812 18.636719 44.992188-4.683593 17.488281-20.53125 29.648437-38.636719 29.648437-18.101562 0-33.949218-12.160156-38.636718-29.648437-4.683594-17.484376 2.960937-35.941407 18.636718-44.992188l-8-13.839844c-24.746093 14.339844-34.710937 45.023438-23.109374 71.164063 11.597656 26.144531 41.035156 39.34375 68.269531 30.621093-8.15625 6.242188-11.277344 17.085938-7.6875 26.710938h-81.472657zm7.839844 224c-4.324218 0-7.832031-3.503906-7.839844-7.832031v-40.167969h112.800782c-10.761719 10.523438-16.820313 24.949219-16.800782 40v8zm154.503906 26.34375c-1.5 1.5-2.339843 3.535156-2.34375 5.65625v24h-96v-24c0-1.578125-.46875-3.125-1.34375-4.441406l-7.710937-11.558594h41.054687v24h16v-48c.027344-22.082031 17.921876-39.972656 40-40 4.417969 0 8-3.582031 8-8s-3.582031-8-8-8h-48c-4.417968 0-8-3.582031-8-8s3.582032-8 8-8h56.554688c8.53125.007812 15.441406 6.925781 15.445312 15.457031v24.542969h16v-24.542969c-.015624-17.363281-14.085937-31.433593-31.445312-31.457031h-.554688v-100.6875l2.175782 2.183594c61.035156 60.9375 61.109375 159.816406.167968 220.847656zm0 0"/><path d="m305.382812 200h16v67.207031h-16zm0 0"/></svg>